<svg width="42" height="38" viewBox="0 0 42 38" fill="none" xmlns="http://www.w3.org/2000/svg">
<path d="M41.087 35.8287C41.5911 35.8287 41.9998 36.3147 41.9998 36.9145C41.9998 37.4711 41.6473 37.9302 41.1933 37.9927L41.087 38H0.913087C0.408984 38 0.000265342 37.514 0.000265342 36.9145C0.000265342 36.3576 0.352739 35.8989 0.806732 35.8359L0.913118 35.8287H41.087ZM21.0001 6.51431C21.4684 6.51431 21.8542 6.93344 21.9071 7.4733L21.9132 7.60017V32.5714C21.9132 33.1708 21.5042 33.6572 21.0001 33.6572C20.5317 33.6572 20.1459 33.2381 20.093 32.6978L20.0869 32.5713V7.60014C20.0869 7.00033 20.496 6.5143 21.0001 6.5143V6.51431ZM28.3042 18.4569C28.7725 18.4569 29.1583 18.876 29.2112 19.4163L29.2173 19.5428V32.5714C29.2173 33.1708 28.8086 33.6572 28.3042 33.6572C27.8362 33.6572 27.4501 33.2381 27.3975 32.6978L27.3914 32.5713V19.5427C27.3914 18.9433 27.8001 18.4569 28.3042 18.4569ZM35.6087 28.7718C36.0767 28.7718 36.4628 29.191 36.5154 29.7308L36.5215 29.8573V32.5718C36.5215 33.1712 36.1128 33.6576 35.6087 33.6576C35.1403 33.6576 34.7545 33.2384 34.7016 32.6982L34.6955 32.5717V29.8573C34.6955 29.2578 35.1042 28.7718 35.6087 28.7718ZM6.39115 28.7718C6.85948 28.7718 7.24527 29.191 7.29818 29.7308L7.30429 29.8573V32.5718C7.30429 33.1712 6.89556 33.6576 6.39116 33.6576C5.92312 33.6576 5.53703 33.2384 5.48444 32.6982L5.47832 32.5717V29.8573C5.47832 29.2578 5.88705 28.7718 6.39115 28.7718ZM13.6956 18.4569C14.1636 18.4569 14.5497 18.876 14.6023 19.4163L14.6084 19.5428V32.5714C14.6084 33.1708 14.1997 33.6572 13.6956 33.6572C13.2273 33.6572 12.8415 33.2381 12.7886 32.6978L12.7825 32.5713V19.5427C12.7825 18.9433 13.1912 18.4569 13.6956 18.4569ZM20.9997 0C24.3548 0 26.4566 2.19095 28.9431 7.55939L29.2699 8.27771C29.3246 8.40058 29.3797 8.5249 29.435 8.65068L29.7697 9.42389L30.1109 10.2345C30.1681 10.373 30.2258 10.5126 30.2839 10.654L31.5236 13.7203L31.8916 14.615C31.9525 14.7611 32.013 14.905 32.0732 15.0479L32.4318 15.8847C32.4911 16.021 32.5501 16.1559 32.6088 16.289L32.9594 17.0695C33.0175 17.1967 33.0756 17.3221 33.1331 17.4461L33.4779 18.1717C35.8786 23.1247 38.0567 25.4421 41.2367 26.0721C41.734 26.1706 42.0703 26.7297 41.9875 27.3212C41.9046 27.9126 41.4341 28.3125 40.9367 28.214C36.9125 27.4168 34.3553 24.5518 31.5604 18.5542L31.1945 17.7541C31.1331 17.6178 31.0716 17.48 31.0102 17.3404L30.6384 16.4861L30.2621 15.5948L29.7094 14.245L28.6474 11.6171L28.3191 10.8268L27.999 10.0758L27.686 9.36332C27.6346 9.24772 27.5833 9.13394 27.5322 9.02124L27.229 8.36581L26.9312 7.7471C26.6362 7.14693 26.3483 6.60133 26.0639 6.10726L25.7812 5.63069C24.2774 3.1787 22.8516 2.17178 21.0003 2.17178C18.8013 2.17178 17.2023 3.59245 15.3598 7.16732L15.0666 7.74968C14.9682 7.94997 14.8688 8.1561 14.7689 8.36839L14.4653 9.02455C14.4142 9.13687 14.3629 9.25102 14.3112 9.36662L13.9982 10.0795C13.9456 10.2013 13.8924 10.3249 13.8389 10.4503L13.5146 11.2213L12.1181 14.6665C11.9255 15.1401 11.7351 15.5996 11.5467 16.0453L11.1729 16.9184C8.07487 24.0391 5.43548 27.3478 1.06327 28.2142C0.565887 28.3128 0.095429 27.9132 0.0125519 27.3218C-0.0702938 26.7303 0.265675 26.1709 0.763047 26.0724C4.01662 25.4275 6.22104 23.0141 8.69076 17.8139L9.03712 17.0701L9.38777 16.2893L9.74361 15.4714C9.80352 15.3318 9.86344 15.1907 9.92367 15.0482L10.2884 14.1729L11.5365 11.0877L11.885 10.2389L12.2265 9.42785C12.2828 9.29589 12.339 9.16538 12.3946 9.03634L12.7266 8.2813C12.7817 8.15843 12.8364 8.03701 12.8908 7.91741L13.2151 7.21691C13.4839 6.648 13.7486 6.11655 14.0109 5.62109L14.3252 5.04382C16.3107 1.49585 18.2274 0.000353581 20.9995 0.000353581L20.9997 0Z" fill="#EB5E28"/>
</svg>
