<svg width="34" height="34" viewBox="0 0 34 34" fill="none" xmlns="http://www.w3.org/2000/svg">
<rect width="34" height="34" rx="3" fill="white"/>
<path d="M18.7664 17.3287C21.2965 16.565 23.1525 14.0881 23.1525 11.1463C23.1525 7.59687 20.4531 4.72148 17.1228 4.72148C13.7926 4.72148 11.0932 7.59687 11.0932 11.1463C11.0932 14.0549 12.906 16.5119 15.393 17.3021C10.6715 18.0691 7.06561 22.1664 7.06561 27.107C7.06561 27.2033 7.06561 27.2996 7.06893 27.3959C7.09882 28.4418 7.94882 29.2785 8.99803 29.2785H25.0053C26.0412 29.2785 26.8978 28.4617 26.931 27.4258C26.9344 27.3195 26.9377 27.2133 26.9377 27.107C26.9344 22.2228 23.4115 18.1621 18.7664 17.3287Z" fill="#282828"/>
</svg>
